<svg id="Layer_1" data-name="Layer 1" xmlns="http://www.w3.org/2000/svg" viewBox="0 0 656.15 177.66"><defs><style>.cls-1{fill:#fff;}</style></defs><title>webshare-logo</title><path class="cls-1" d="M290.82,108.64l1.82-3.23a79.86,79.86,0,0,0,5.25-12.52q3.43-13.33-11.72-14.54L273,90.26l-3.64,3.43-3.64,3.23q-4.45,4-7.27,6.67l26.06-47.07a14.39,14.39,0,0,0-2.28-9.5q40.62,2.29,62.68,7.8h.21q0-5.56-4.71-15.41a22.61,22.61,0,0,0-9-10.06q-11.77-.21-15.41-.21-48.37,0-100.15,2.57Q211.21,15,201.15,15h-1.5a40.52,40.52,0,0,0-18,4.07q-7.28,3.43-7.28,12.84,0,10.49,5.35,14.77,2.14,0,9.42-.43L188.1,48q-17.77,29.11-53.93,73.19-9.2,11.77-33.81,35.31,3.85-7.06,46.44-84.53,12.41-22,12.41-24,0-3.85-2.78-9.2-6.42-7.7-12.2-7.7h-.43q0,2.57-21.61,43.23-.22.86-50.93,48.58l30.82-56.28Q111.7,50.11,111.7,48a21.32,21.32,0,0,0-2.14-7.92q-6.21-9-13.27-9-21,0-51.57,13.7A112.14,112.14,0,0,0,21.39,58.67q-10.7,7.06-10.7,16.48v4.07a39.21,39.21,0,0,0,.43,6Q14.54,101.69,22,101.68a40.36,40.36,0,0,0,9.2-1.28q10.27-3.21,12.84-7.7c-.29,0-.43-.07-.43-.21q-10.7-.64-12.41-2.14-5.35-3.85-5.35-6t12.2-12.41Q67.4,50.75,88.16,48h.21q-8.56,16.91-31.89,59.92-17.77,30.17-17.76,38.52v1.07l.43,2.57q3.42,7.28,12.63,7.28,1.28-.43,53.07-51.57L90.52,132.5q-16.27,27.82-16.26,36.17v.43a23.09,23.09,0,0,0,.21,2.78q3,7.49,13.27,7.49h.21q13.91,0,60.35-45.58,22-22.68,32.1-35.52Q209.5,60,215.49,45.4q28.8,0,52.27.93Q263.62,55,253,74.3q-3,5.45-7.07,12.93l-3.43,6.26-1.82,3-1.62,3q-7.68,13.74-9.9,18.18-1.13,1.88-3.14,5.7c-.88.71-1.72,1.38-2.51,2a104.81,104.81,0,0,1-18.18,11.11q-11.92,5.66-16.56,5.66h-.2c-1.21,0-1.89-.33-2-1q.81-6.26,5.66-15.15a31.39,31.39,0,0,1,3.43-5.25l18.18-.4a64.74,64.74,0,0,0,20.81-20.6q4.24-7.27,4.24-12.52v-.81q0-7.88-8.28-11.72a34.27,34.27,0,0,0-4.85-1.62,35.8,35.8,0,0,0-7.47-1.21,19,19,0,0,0-3.43,1.41,60.61,60.61,0,0,0-6.67,3.23q-18.59,10.91-30.1,35.35-7.07,15-7.07,25.25v1.21a23.19,23.19,0,0,0,4.65,14.54,13.71,13.71,0,0,0,10.3,4.44h.81a22.58,22.58,0,0,0,4-.4q6.87-1,19.19-8.48,3.16-2,6.61-4.51-2.48,12,12.17,13.2l7.88-14.34a21.37,21.37,0,0,0,5.45,7.47,25.56,25.56,0,0,0,8.69,5.45q11.71,4.65,16.77-4.44,2.83-6.06,8.89-16.56l4.65-8.08q2.62-4.85,4.44-8.28,1.21-2.22,3.43-6.46ZM194.31,33.2q0,.43-8.35,1.28h-.21a69.23,69.23,0,0,1,.64-8.13v-.21q7.91,0,7.92,6.85Zm14.51,64.53q2-2.22,6.26-6.06,4.24-3.64,6.87-4h.4q1.21.61,1.21,2.83a19.53,19.53,0,0,1-2.42,8.48,23.3,23.3,0,0,1-3.43,5.25,21,21,0,0,1-3.23,2.83,19.11,19.11,0,0,1-5.25,2.63l-8.69-.4A126.22,126.22,0,0,1,208.81,97.73Zm44.44,43.83q-3.64,1-6.46-2.42a18.88,18.88,0,0,1-3.23-8.69l.81-1.21a8,8,0,0,0,2-1.21l29.69-25.25Z" transform="translate(-10.69 -15.01)"/><path class="cls-1" d="M631.38,165.81q-3.84-1.82-32.93-2.22A589.18,589.18,0,0,0,493,173.08h-.4q0-.41,4.65-8.28,39.19-69.28,39.19-70.09A16.29,16.29,0,0,0,532,83q-5.66-5-10.1-5.05-10.71,7.48-15.55,7.47a127.3,127.3,0,0,1,10.5-14.14v-.4L515.44,69A18.63,18.63,0,0,0,502.71,64H501.3q-1.62,0-5.66,2.42-11.92,11.51-11.92,19.8,0,5.26,6.67,7.68-2.38,4-7.24,12.8a9.43,9.43,0,0,0-.84.53l-.2.2-25.86,23.84,20.2-35.75A15.48,15.48,0,0,0,473,84a16.49,16.49,0,0,0-10.71-5.66q.2,2-2.83,8.08-5.05-8.48-15.35-11.72Q432.82,71.07,428,80q-3.23,6.47-9.49,17.57l-5,8.69-1,1.85a11.35,11.35,0,0,0-2.84.58q-.41,0-17,13.74L408,95.31v-2q0-5.86-5.45-11.31-5.26-3.83-8.89-3.84-3.23,1-12.93,9.7-13.33,12.93-20.6,21.61,0-.2,27.47-49.49,2-3.43,2-4.65a16.32,16.32,0,0,0-5-11.92q-5.05-4.24-8.89-4.24-.41,0-.61,1-3.23,8.48-14.75,29.49-10.41,18.75-17,30.67-9.26,3.84-24.83,13a25,25,0,0,1-.81-6.06q0-13.13,16.16-22.22a72.5,72.5,0,0,1,14.95-6.26l-.4-.81a30.21,30.21,0,0,0-2.22-4.65q-4.44-6.67-10.1-8.69a51.61,51.61,0,0,0-6.26,3,86.61,86.61,0,0,0-12.32,7.68,56.23,56.23,0,0,0-8.08,7.07q-10.51,11.51-10.5,21.41v2.42q0,3,6.46,15.15A162.37,162.37,0,0,0,289,133.28c-.4.27-.61.54-.61.81a17,17,0,0,0-1.41,6.46v.81a17.41,17.41,0,0,0,1,5.45,19.75,19.75,0,0,0,3.64,5.66,16.64,16.64,0,0,0,11.51,4.85h.81a15.15,15.15,0,0,0,11.51-5.25q5.86-8.08,5.86-19.39v-.61a56.81,56.81,0,0,0-1-10.3q6.77-3.52,15.11-7.07c-.91,1.67-1.64,3-2.19,4q-12.32,21-12.32,28.08v1.62a7.66,7.66,0,0,0,3,5.86,16.24,16.24,0,0,0,9.29,3h.2q9.09-12.52,20.2-26.06,14.74-17.77,27.07-27.27-5.66,9.9-9.29,17-11.31,19-11.31,26.66a9.36,9.36,0,0,0,2,5.86,15.27,15.27,0,0,0,10.3,3.84q.81,0,22-21.41,2.24-2.17,6.51-6.24a54.13,54.13,0,0,0-5.1,12.09q-3.64,14.35,12.32,15.55L432,136.52q-4,9.09-2.63,13.94,1.82,6.06,12.12,6.87,4.65-4.44,18.58-17l5.25-4.44q2.18-2,3.88-3.69l-5.7,10.56q-6.86,11.51-8.69,12.93.81,1,6.87,1.62a18.22,18.22,0,0,0,12.12-4.24q3.64-6.46,29.29-57.77h.4a23.65,23.65,0,0,0,12.12-3.43h.2l-25.65,46.26q-17.78,30.5-17.78,38v1a9.52,9.52,0,0,0,.4,2.63q3,6.67,11.72,6.67Q515.23,181,552.4,181q60.19,0,95.14,11.72a.36.36,0,0,0,.4-.4v-.61Q647.95,172.88,631.38,165.81ZM308.6,130.46a5.39,5.39,0,0,1-1.41,3.64,17.14,17.14,0,0,1-7.47,4,26.52,26.52,0,0,1,3-4,64.74,64.74,0,0,1,5.86-5ZM451,101.77,449,105q-2.23,4-3.84,6.87l-29.9,25.45,27.88-47.07a6.33,6.33,0,0,1,6.06,1.62,13.64,13.64,0,0,1,3.64,6.46Z" transform="translate(-10.69 -15.01)"/><path class="cls-1" d="M529.57,138.33a23.19,23.19,0,0,0,4.65,14.54,13.71,13.71,0,0,0,10.3,4.44h.81a22.58,22.58,0,0,0,4-.4q6.87-1,19.19-8.48a119.54,119.54,0,0,0,12.73-9.29q2.62-2.42,5.45-5.45,6.06-6.86,6.06-11.92a7.83,7.83,0,0,0-1.21-4.44,124,124,0,0,1-9.49,8.08,104.81,104.81,0,0,1-18.18,11.11q-11.92,5.66-16.56,5.66h-.2c-1.21,0-1.89-.33-2-1q.81-6.26,5.66-15.15a31.39,31.39,0,0,1,3.43-5.25l18.18-.4a64.74,64.74,0,0,0,20.81-20.6q4.24-7.27,4.24-12.52v-.81q0-7.88-8.28-11.72a34.27,34.27,0,0,0-4.85-1.62,35.8,35.8,0,0,0-7.47-1.21,19,19,0,0,0-3.43,1.41,60.61,60.61,0,0,0-6.67,3.23q-18.59,10.91-30.1,35.35-7.07,15-7.07,25.25Zm37.77-40.6q2-2.22,6.26-6.06,4.24-3.64,6.87-4h.4q1.21.61,1.21,2.83a19.53,19.53,0,0,1-2.42,8.48,23.3,23.3,0,0,1-3.43,5.25A21,21,0,0,1,573,107a19.11,19.11,0,0,1-5.25,2.63l-8.69-.4A126.22,126.22,0,0,1,567.35,97.73Z" transform="translate(-10.69 -15.01)"/><rect class="cls-1" x="594.85" y="119.75" width="6.22" height="6.91"/><polygon class="cls-1" points="612.48 109.31 617.25 120.51 621.73 120.51 626.49 109.31 626.49 126.66 633.03 126.66 633.03 100.49 625.45 100.49 619.67 113.41 613.87 100.49 606.29 100.49 606.29 126.66 612.48 126.66 612.48 109.31"/><polygon class="cls-1" points="656.15 105.48 656.15 100.49 638.44 100.49 638.44 126.66 656.15 126.66 656.15 121.67 644.98 121.67 644.98 115.06 655.27 115.06 655.27 110.07 644.98 110.07 644.98 105.48 656.15 105.48"/></svg>